<?xml version="1.0" encoding="UTF-8"?>
<svg xmlns="http://www.w3.org/2000/svg" xmlns:xlink="http://www.w3.org/1999/xlink" width="26px" height="48px" viewBox="0 0 26 47" version="1.1">
<g id="surface1">
<path style=" stroke:none;fill-rule:nonzero;fill:rgb(0%,0%,0%);fill-opacity:1;" d="M 1.230469 44.316406 C 0.3125 43.277344 -0.136719 41.707031 0.0390625 40.195312 C 0.21875 38.441406 1.613281 37.058594 1.230469 35.164062 C 1.039062 31.03125 -0.339844 27.457031 0.890625 23.6875 C 2.1875 18.378906 6.519531 16.765625 9.65625 14.25 C 10.402344 13.996094 10.953125 13.480469 11.453125 12.871094 C 12.039062 12.421875 12.550781 11.867188 12.945312 11.328125 C 13.394531 9.980469 13.15625 8.300781 13.875 6.980469 C 14.378906 6.132812 14.796875 5.195312 15.523438 4.519531 C 18.796875 3.730469 18.527344 0.492188 19.722656 0.0664062 C 21.429688 -0.398438 20.289062 3.058594 21.054688 4.121094 C 22.371094 4.175781 23.300781 4.890625 23.988281 5.796875 C 24.398438 6.714844 25.734375 6.625 25.964844 7.527344 C 26.160156 8.351562 25.507812 9.414062 24.886719 10.050781 C 24.339844 10.65625 23.53125 10.757812 23.125 11.460938 C 22.492188 12.859375 23.339844 14.773438 23.390625 16.339844 C 23.308594 17.984375 23.53125 19.808594 22.527344 21.132812 C 22.375 22.203125 21.371094 22.683594 21.015625 23.667969 C 20.195312 25.050781 18.902344 27.480469 18.953125 29.132812 C 18.972656 31.714844 19.949219 34.785156 20.34375 37.332031 C 21.277344 37.78125 23.214844 37.3125 22.933594 38.425781 C 21.691406 40.457031 14.425781 40.109375 13.03125 40.230469 C 10.128906 40.160156 7.148438 40.335938 4.316406 39.894531 C 2.640625 39.382812 2.351562 40.710938 2.769531 42.125 C 3.171875 42.867188 3.722656 43.476562 4.472656 43.914062 C 5.75 44.386719 7.082031 44.972656 8.574219 44.933594 C 10.175781 45.1875 11.523438 44.988281 13.214844 44.816406 C 14.246094 44.253906 18.605469 44.449219 16.277344 45.6875 C 11.570312 47.769531 3.382812 47.347656 1.230469 44.316406 Z M 1.230469 44.316406 "/>
</g>
</svg>
